<?xml version="1.0" standalone="no"?>
<!DOCTYPE svg PUBLIC "-//W3C//DTD SVG 20010904//EN"
 "http://www.w3.org/TR/2001/REC-SVG-20010904/DTD/svg10.dtd">
<svg version="1.0" xmlns="http://www.w3.org/2000/svg"
 width="3363.000000pt" height="876.000000pt" viewBox="0 0 3363.000000 876.000000"
 preserveAspectRatio="xMidYMid meet">

<g transform="translate(0.000000,876.000000) scale(0.100000,-0.100000)"
fill="#562808" stroke="none">
<path d="M2065 6690 l-1800 -1800 127 -127 128 -128 -127 -127 -128 -128 125
-125 125 -125 -125 -125 -125 -125 1803 -1803 1802 -1802 1800 1800 1800 1800
-127 127 -128 128 128 128 127 127 -125 125 -125 125 125 125 125 125 -1803
1803 -1802 1802 -1800 -1800z m5235 -1915 l-110 -110 -1660 1660 -1660 1660
-1660 -1660 -1660 -1660 -112 113 -113 112 1770 1770 1770 1770 1772 -1772
1773 -1773 -110 -110z m-1782 1502 l1642 -1642 -113 -113 -112 -112 -1530
1530 c-842 842 -1534 1530 -1540 1530 -5 0 -697 -687 -1537 -1527 l-1528
-1528 -110 110 -110 110 1642 1642 c904 904 1645 1643 1648 1643 3 0 744 -739
1648 -1643z m-131 -3414 l-1517 -1518 -1520 1520 -1520 1520 1517 1517 1518
1518 1520 -1520 1520 -1520 -1518 -1517z m-4724 1629 l107 -107 -113 -113
-112 -112 -110 110 -110 110 110 110 c60 61 112 110 115 110 3 0 54 -48 113
-108z m6640 0 l107 -107 -113 -113 -112 -112 -110 110 -110 110 110 110 c60
61 112 110 115 110 3 0 54 -48 113 -108z m-4966 -1674 l1533 -1533 1533 1533
1532 1532 110 -110 110 -110 -1645 -1645 -1645 -1645 -1645 1645 -1645 1645
110 110 c60 60 112 110 115 110 3 0 695 -690 1537 -1532z m1528 -2028 c5 0
755 745 1665 1655 l1655 1655 113 -113 112 -112 -1770 -1770 -1770 -1770
-1772 1772 -1773 1773 110 110 110 110 1655 -1655 c910 -910 1660 -1655 1665
-1655z"/>
<path d="M33046 5566 c-10 -25 -34 -64 -55 -87 l-38 -43 -66 42 c-120 76 -247
112 -392 112 -527 0 -805 -496 -519 -926 58 -88 129 -159 216 -217 30 -20 163
-92 295 -160 294 -152 367 -198 464 -296 81 -82 117 -144 126 -220 12 -103
-39 -231 -122 -310 -94 -89 -208 -131 -358 -131 -369 0 -620 223 -678 600
l-12 80 -39 0 -38 0 0 -415 0 -415 38 0 c35 0 38 3 56 47 21 51 80 123 102
123 7 0 73 -27 146 -61 73 -34 176 -72 228 -86 84 -22 111 -24 235 -21 125 4
149 7 228 35 215 75 367 225 433 426 24 71 28 99 28 207 1 105 -3 135 -22 190
-45 131 -129 242 -246 324 -34 24 -180 106 -326 181 -421 220 -530 296 -587
413 -39 80 -40 192 -2 272 35 76 77 121 146 157 77 41 159 57 246 48 289 -28
460 -219 510 -570 l13 -90 42 -3 42 -3 0 420 0 421 -39 0 c-36 0 -39 -2 -55
-44z"/>
<path d="M16945 5580 c-430 -67 -799 -382 -939 -802 -82 -244 -86 -518 -11
-758 106 -336 355 -617 665 -751 160 -69 241 -84 445 -84 175 1 182 2 275 33
139 46 256 116 398 238 l43 37 30 -29 c32 -31 89 -136 89 -166 0 -14 8 -18 40
-18 l40 0 0 420 0 420 -40 0 c-33 0 -40 -3 -40 -19 0 -38 -70 -233 -114 -319
-121 -234 -319 -393 -545 -438 -113 -22 -287 -15 -386 16 -229 72 -408 249
-505 503 -153 396 -114 904 93 1226 159 244 390 362 681 348 223 -10 394 -96
542 -270 94 -110 176 -273 217 -434 l22 -83 37 0 38 0 0 415 0 415 -40 0 c-29
0 -40 -4 -40 -15 0 -23 -55 -125 -88 -165 l-30 -35 -53 50 c-122 115 -285 207
-434 246 -92 24 -294 33 -390 19z"/>
<path d="M24435 4593 c-236 -548 -446 -1031 -467 -1073 -70 -143 -135 -185
-310 -197 l-88 -6 0 -38 0 -39 445 0 445 0 0 39 0 38 -83 6 c-111 9 -176 30
-212 67 -26 27 -30 38 -29 88 0 56 37 150 194 505 l21 47 461 -2 460 -3 106
-245 c92 -213 106 -252 106 -302 1 -50 -3 -60 -29 -88 -36 -38 -103 -59 -212
-67 l-83 -6 0 -38 0 -39 525 0 525 0 0 40 0 40 -47 0 c-73 0 -171 19 -213 40
-49 25 -83 67 -129 159 -28 55 -856 1953 -898 2059 -3 6 -17 12 -32 12 -25 0
-41 -35 -456 -997z m574 29 c106 -244 191 -446 188 -448 -2 -2 -179 -3 -394
-2 l-390 3 195 453 c107 249 198 449 202 445 4 -4 94 -208 199 -451z"/>
<path d="M9600 5480 l0 -40 73 0 c151 0 230 -47 264 -156 17 -55 18 -113 18
-899 0 -787 -1 -844 -18 -900 -22 -71 -74 -128 -132 -144 -22 -6 -77 -14 -122
-18 l-83 -6 0 -38 0 -39 510 0 510 0 0 39 0 38 -82 6 c-250 18 -277 80 -278
650 l0 267 218 0 c317 0 488 33 640 121 146 86 266 254 292 410 61 361 -173
656 -580 733 -69 13 -177 16 -656 16 l-574 0 0 -40z m1143 -115 c79 -21 131
-49 189 -103 57 -53 88 -103 120 -188 18 -50 22 -80 22 -194 0 -114 -4 -144
-22 -194 -32 -85 -63 -135 -120 -188 -107 -100 -177 -118 -459 -118 l-213 0 0
500 0 500 213 0 c157 0 228 -4 270 -15z"/>
<path d="M11840 5480 l0 -40 73 0 c151 0 230 -47 264 -156 17 -55 18 -113 18
-899 0 -787 -1 -844 -18 -900 -22 -71 -74 -128 -132 -144 -22 -6 -77 -14 -122
-18 l-83 -6 0 -38 0 -39 510 0 510 0 0 39 0 38 -82 6 c-250 18 -277 80 -278
650 l0 267 93 -1 92 0 374 -500 375 -499 313 0 313 0 0 39 c0 39 0 39 -52 51
-82 19 -245 101 -333 167 -126 96 -235 208 -469 483 -214 251 -217 255 -189
262 15 3 67 16 116 27 336 77 542 331 524 646 -17 303 -236 523 -587 589 -69
13 -177 16 -656 16 l-574 0 0 -40z m1143 -115 c79 -21 131 -49 189 -103 57
-53 88 -103 120 -188 18 -50 22 -80 22 -194 0 -114 -4 -144 -22 -194 -32 -85
-63 -135 -120 -188 -107 -100 -177 -118 -459 -118 l-213 0 0 500 0 500 213 0
c157 0 228 -4 270 -15z"/>
<path d="M14350 5481 l0 -38 83 -6 c140 -11 197 -39 237 -116 38 -76 41 -162
38 -991 -4 -893 -2 -866 -77 -941 -43 -43 -86 -57 -198 -66 l-83 -6 0 -38 0
-39 515 0 515 0 0 39 0 38 -87 6 c-198 13 -254 71 -273 279 -12 130 -12 1420
-1 1550 20 218 72 272 274 285 l87 6 0 38 0 39 -515 0 -515 0 0 -39z"/>
<path d="M18610 5480 l0 -40 73 0 c151 0 230 -47 264 -156 17 -55 18 -113 18
-899 0 -787 -1 -844 -18 -900 -22 -71 -74 -128 -132 -144 -22 -6 -77 -14 -122
-18 l-83 -6 0 -38 0 -39 930 0 930 0 0 43 c1 23 7 134 14 247 8 113 10 209 6
213 -4 5 -22 7 -40 5 -33 -3 -34 -4 -57 -92 -43 -162 -87 -216 -208 -253 -53
-16 -99 -18 -390 -18 -307 0 -333 1 -379 20 -28 11 -61 35 -77 55 -55 68 -61
117 -66 538 l-5 382 166 0 c257 0 351 -21 409 -90 34 -40 46 -85 54 -192 l6
-88 38 0 39 0 0 440 0 440 -39 0 -38 0 -6 -87 c-8 -118 -22 -161 -66 -204 -60
-60 -119 -73 -356 -73 l-200 -1 -3 428 -2 428 382 -3 c369 -3 385 -4 438 -26
99 -39 152 -117 190 -279 12 -53 12 -53 51 -53 47 0 44 -23 24 255 -8 110 -15
210 -15 223 l0 22 -865 0 -865 0 0 -40z"/>
<path d="M20690 5480 l0 -40 53 0 c77 0 174 -18 217 -40 54 -27 105 -92 135
-169 22 -58 655 -2035 655 -2046 0 -3 12 -5 28 -5 l27 0 265 834 c146 459 268
831 271 828 3 -4 103 -315 222 -692 344 -1088 304 -972 334 -968 25 3 32 22
195 533 93 292 236 742 319 1000 83 259 164 501 181 538 57 123 138 172 310
184 l88 6 0 38 0 39 -430 0 -430 0 0 -39 0 -38 73 -6 c96 -8 142 -22 180 -57
31 -27 32 -31 32 -107 0 -74 -11 -112 -213 -742 -117 -366 -214 -666 -216
-669 -3 -2 -25 61 -50 140 -25 78 -143 452 -263 831 l-218 687 -29 -2 -29 -3
-261 -822 c-144 -452 -264 -824 -267 -827 -7 -7 -425 1299 -438 1370 -13 66 0
115 40 148 38 32 83 45 192 53 l87 6 0 38 0 39 -530 0 -530 0 0 -40z"/>
<path d="M26370 5480 l0 -40 73 0 c151 0 230 -47 264 -156 17 -55 18 -113 18
-899 0 -787 -1 -844 -18 -900 -22 -71 -74 -128 -132 -144 -22 -6 -77 -14 -122
-18 l-83 -6 0 -38 0 -39 510 0 510 0 0 39 0 38 -82 6 c-250 18 -277 80 -278
650 l0 267 93 -1 92 0 374 -500 375 -499 313 0 313 0 0 39 c0 39 0 39 -52 51
-82 19 -245 101 -333 167 -126 96 -235 208 -469 483 -214 251 -217 255 -189
262 15 3 67 16 116 27 336 77 542 331 524 646 -17 303 -236 523 -587 589 -69
13 -177 16 -656 16 l-574 0 0 -40z m1143 -115 c79 -21 131 -49 189 -103 57
-53 88 -103 120 -188 18 -50 22 -80 22 -194 0 -114 -4 -144 -22 -194 -32 -85
-63 -135 -120 -188 -107 -100 -177 -118 -459 -118 l-213 0 0 500 0 500 213 0
c157 0 228 -4 270 -15z"/>
<path d="M28880 5481 l0 -41 73 0 c151 0 230 -47 264 -156 17 -55 18 -113 18
-899 0 -787 -1 -844 -18 -900 -22 -71 -74 -128 -132 -144 -22 -6 -77 -14 -122
-18 l-83 -6 0 -39 0 -39 633 4 c682 4 685 5 892 62 124 35 293 121 392 200
259 205 399 551 380 940 -24 497 -268 838 -710 994 -48 17 -132 41 -185 53
-93 21 -121 22 -749 25 l-653 4 0 -40z m1315 -129 c406 -110 615 -438 615
-967 0 -304 -62 -525 -195 -703 -157 -208 -436 -317 -769 -299 -139 8 -181 20
-227 66 -75 74 -78 127 -79 1119 l0 814 288 -4 c255 -4 296 -7 367 -26z"/>
</g>
</svg>
