<?xml version="1.0" encoding="utf-8"?>
<svg viewBox="0 0 776 876" xmlns="http://www.w3.org/2000/svg">
  <g fill="#562808" stroke="none" style="" transform="matrix(0.099186, 0, 0, -0.1, 0.215741, 876)">
    <path d="M2065 6690 l-1800 -1800 127 -127 128 -128 -127 -127 -128 -128 125 -125 125 -125 -125 -125 -125 -125 1803 -1803 1802 -1802 1800 1800 1800 1800 -127 127 -128 128 128 128 127 127 -125 125 -125 125 125 125 125 125 -1803 1803 -1802 1802 -1800 -1800z m5235 -1915 l-110 -110 -1660 1660 -1660 1660 -1660 -1660 -1660 -1660 -112 113 -113 112 1770 1770 1770 1770 1772 -1772 1773 -1773 -110 -110z m-1782 1502 l1642 -1642 -113 -113 -112 -112 -1530 1530 c-842 842 -1534 1530 -1540 1530 -5 0 -697 -687 -1537 -1527 l-1528 -1528 -110 110 -110 110 1642 1642 c904 904 1645 1643 1648 1643 3 0 744 -739 1648 -1643z m-131 -3414 l-1517 -1518 -1520 1520 -1520 1520 1517 1517 1518 1518 1520 -1520 1520 -1520 -1518 -1517z m-4724 1629 l107 -107 -113 -113 -112 -112 -110 110 -110 110 110 110 c60 61 112 110 115 110 3 0 54 -48 113 -108z m6640 0 l107 -107 -113 -113 -112 -112 -110 110 -110 110 110 110 c60 61 112 110 115 110 3 0 54 -48 113 -108z m-4966 -1674 l1533 -1533 1533 1533 1532 1532 110 -110 110 -110 -1645 -1645 -1645 -1645 -1645 1645 -1645 1645 110 110 c60 60 112 110 115 110 3 0 695 -690 1537 -1532z m1528 -2028 c5 0 755 745 1665 1655 l1655 1655 113 -113 112 -112 -1770 -1770 -1770 -1770 -1772 1772 -1773 1773 110 110 110 110 1655 -1655 c910 -910 1660 -1655 1665 -1655z"/>
  </g>
</svg>